<svg xmlns="http://www.w3.org/2000/svg" width="1024" height="1024" viewBox="0 0 1024 1024">
<g>
<path d="M 300.50 662.64 C292.06,664.48 105.75,664.40 99.00,662.55 C92.46,660.77 88.44,658.44 83.70,653.70 C81.39,651.39 79.24,649.59 78.92,649.69 C78.60,649.80 78.33,649.29 78.33,648.55 C78.33,646.73 75.90,641.00 75.13,641.00 C74.78,641.00 74.72,583.06 75.00,512.25 L 75.50 383.50 L 78.29 377.82 C82.69,368.86 90.09,363.40 101.00,361.06 C105.07,360.18 131.77,359.96 204.00,360.19 L 301.50 360.50 L 306.22 362.68 C312.16,365.43 320.31,373.14 322.57,378.16 C323.52,380.27 324.65,382.00 325.08,382.00 C325.50,382.00 325.71,440.20 325.53,511.33 L 325.22 640.65 L 323.00 645.08 C320.40,650.27 313.75,657.50 309.50,659.75 C307.85,660.62 303.80,661.92 300.50,662.64 ZM 104.95 457.45 L 108.39 461.00 L 293.20 461.00 L 300.00 454.20 L 300.00 425.65 C300.00,406.20 299.63,396.29 298.85,394.56 C298.46,393.71 298.24,392.99 297.84,392.37 C295.63,388.90 287.96,388.90 214.06,388.89 C209.54,388.89 204.76,388.89 199.72,388.89 L 106.50 388.87 L 103.71 392.00 L 100.92 395.13 L 101.50 453.89 ZM 745.50 617.12 C740.49,619.52 738.26,619.99 732.00,619.96 C718.10,619.88 708.94,614.31 702.45,602.00 C701.44,600.08 700.56,598.05 700.51,597.50 C700.45,596.95 700.04,593.89 699.58,590.70 C698.67,584.31 700.12,574.60 702.75,569.51 C705.99,563.26 710.46,558.90 716.92,555.72 C722.73,552.86 724.40,552.50 731.98,552.50 C739.24,552.50 741.32,552.90 746.07,555.23 C752.86,558.57 757.78,563.35 761.53,570.23 C764.05,574.87 764.37,576.46 764.43,584.97 C764.49,593.39 764.17,595.20 761.70,600.50 C758.06,608.30 752.94,613.54 745.50,617.12 ZM 483.46 618.17 C476.59,620.49 472.38,620.91 466.22,619.88 C455.77,618.15 447.25,611.84 442.47,602.30 C439.87,597.11 439.55,595.41 439.41,586.15 C439.28,577.12 439.55,575.26 441.54,571.51 C445.05,564.92 449.16,559.00 450.23,559.00 C450.76,559.00 452.40,558.14 453.87,557.09 C458.51,553.79 467.67,551.68 474.35,552.38 C503.61,555.44 514.88,590.13 493.52,611.42 C490.15,614.78 486.75,617.07 483.46,618.17 ZM 879.10 499.92 C874.28,501.45 863.28,501.12 858.07,499.28 C855.27,498.29 851.22,495.36 847.09,491.36 C843.49,487.86 840.88,485.00 841.30,485.00 C841.71,485.00 841.29,483.54 840.35,481.75 C838.23,477.69 837.82,475.30 837.78,466.50 C837.72,453.38 844.00,442.60 854.78,437.31 C859.83,434.83 861.61,434.50 870.00,434.50 C878.16,434.50 880.29,434.87 885.09,437.12 C891.50,440.13 894.90,443.41 898.94,450.50 C903.51,458.50 904.59,465.34 902.65,473.93 C900.67,482.72 897.22,488.79 891.70,493.19 C887.23,496.75 884.56,498.18 879.10,499.92 ZM 408.70 618.53 C393.93,623.20 377.67,620.51 369.16,612.00 C365.68,608.52 360.86,599.10 360.59,595.25 C360.44,593.09 360.75,593.00 368.67,593.00 L 376.91 593.00 L 378.50 596.36 C382.04,603.82 389.50,607.74 397.82,606.51 C407.02,605.16 412.94,598.84 411.62,591.80 C410.70,586.86 406.43,583.51 399.00,581.88 C385.25,578.86 381.08,577.70 378.00,576.04 C376.08,575.00 373.08,573.38 371.34,572.44 C369.29,571.32 367.22,568.76 365.42,565.11 C357.99,550.03 365.88,532.38 382.23,527.53 C388.82,525.57 400.20,525.57 406.82,527.54 C412.71,529.29 420.04,535.97 422.94,542.25 C423.90,544.31 424.92,545.75 425.22,545.44 C425.52,545.14 425.46,546.38 425.09,548.20 C424.72,550.01 423.87,551.46 423.21,551.40 C422.54,551.34 419.58,551.23 416.62,551.15 C411.64,551.01 411.15,550.78 409.99,547.98 C407.76,542.58 403.94,540.28 396.97,540.13 C393.57,540.05 388.97,540.53 386.76,541.19 C379.50,543.37 376.70,551.96 381.25,558.14 C384.30,562.28 387.02,563.53 399.33,566.44 C412.72,569.60 418.08,572.14 422.90,577.63 C431.62,587.53 430.92,601.41 421.21,611.28 C417.35,615.21 415.11,616.51 408.70,618.53 ZM 413.50 500.00 C405.83,501.95 390.23,500.47 383.00,497.11 C372.54,492.25 363.85,480.38 361.11,467.20 C359.57,459.85 359.72,446.50 361.41,439.98 C362.19,436.99 362.62,434.19 362.36,433.77 C362.09,433.34 362.36,433.00 362.94,433.00 C363.52,433.00 364.00,432.43 364.00,431.73 C364.00,431.03 365.14,428.78 366.54,426.73 C367.93,424.68 368.83,423.00 368.53,423.00 C368.22,423.00 370.51,420.70 373.61,417.90 C379.93,412.18 383.21,410.55 393.88,407.86 C402.12,405.78 405.15,405.56 406.55,406.93 C407.07,407.45 409.33,408.04 411.57,408.24 C416.25,408.67 424.86,413.35 430.06,418.30 C434.67,422.67 439.22,430.47 438.81,433.29 C438.53,435.32 437.88,435.52 430.91,435.79 L 423.32 436.08 L 420.64 432.03 C419.17,429.81 416.10,426.64 413.83,424.99 C410.16,422.33 408.90,422.00 402.56,422.00 C390.70,422.00 384.86,425.95 379.18,437.80 C375.69,445.09 375.51,445.97 375.72,454.50 C376.23,475.85 385.15,486.97 401.79,486.99 C410.71,487.00 415.45,484.87 419.85,478.89 C421.55,476.58 423.07,474.28 423.24,473.77 C423.74,472.29 437.11,472.56 438.04,474.07 C439.13,475.82 434.94,483.90 430.76,488.13 C426.08,492.87 423.72,494.61 418.80,496.91 C416.43,498.02 414.95,499.00 415.50,499.08 C416.05,499.17 415.15,499.58 413.50,500.00 ZM 757.72 496.15 C751.19,500.42 741.47,501.21 735.50,497.96 C727.03,493.35 725.09,490.04 725.12,480.31 C725.14,474.30 725.48,472.96 727.60,470.68 C730.14,467.93 737.71,464.00 740.45,464.00 C741.30,464.00 742.00,463.66 742.00,463.25 C742.01,462.84 744.91,462.43 748.45,462.35 C751.99,462.26 756.42,461.69 758.29,461.07 C764.93,458.88 765.72,451.63 759.72,447.97 C753.74,444.33 745.07,446.33 741.74,452.12 C740.09,455.01 739.85,455.08 733.27,454.80 C726.75,454.51 726.50,454.41 726.53,451.95 C726.62,445.34 735.12,437.13 744.12,434.97 C751.09,433.30 762.49,434.17 767.50,436.74 C773.01,439.58 775.72,442.76 778.03,449.08 C779.75,453.78 780.00,457.07 780.00,474.67 C780.00,485.78 779.56,496.02 779.02,497.43 C778.13,499.78 777.56,500.00 772.27,499.98 C766.31,499.97 763.30,498.94 764.34,497.26 C764.67,496.73 764.39,495.56 763.72,494.66 C762.62,493.18 762.04,493.33 757.72,496.15 ZM 482.61 497.24 C474.94,502.22 463.56,501.95 456.57,496.62 C449.72,491.40 447.02,480.21 450.73,472.43 C453.07,467.53 459.34,464.47 470.06,463.01 C474.70,462.37 479.99,461.63 481.81,461.37 C492.35,459.83 490.80,447.13 479.87,445.51 C474.00,444.65 468.70,446.89 467.02,450.95 C465.80,453.90 465.54,454.00 459.38,454.00 C453.09,454.00 453.00,453.96 453.00,451.25 C453.01,444.66 461.69,436.94 470.77,435.44 C477.39,434.35 486.98,434.94 490.28,436.65 C491.81,437.44 493.61,437.77 494.28,437.38 C494.95,436.99 495.22,436.99 494.89,437.37 C494.55,437.75 496.35,440.16 498.89,442.73 L 503.50 447.41 L 503.83 472.85 C504.09,493.17 503.89,498.46 502.83,499.13 C501.29,500.10 492.91,500.28 490.58,499.39 C489.71,499.06 489.00,497.96 489.00,496.95 C489.00,493.91 487.63,493.97 482.61,497.24 ZM 581.71 617.57 C578.26,619.54 576.14,619.97 570.00,619.93 C560.18,619.87 553.97,616.60 550.20,609.50 C547.73,604.84 547.74,604.95 547.28,578.75 L 546.85 554.00 L 554.32 554.00 C559.73,554.00 561.93,554.38 562.31,555.38 C562.60,556.13 562.89,565.86 562.96,577.00 C563.08,598.27 563.47,600.40 567.92,604.43 C571.19,607.38 578.92,607.52 583.14,604.71 C589.42,600.51 590.00,598.00 590.00,574.75 L 590.00 554.00 L 606.03 554.00 L 605.50 618.50 L 600.05 618.81 C592.71,619.23 590.00,618.45 590.00,615.91 C590.00,613.49 588.23,613.84 581.71,617.57 ZM 650.00 500.48 C648.08,500.85 645.71,501.37 644.75,501.64 C643.79,501.91 643.00,501.65 643.00,501.07 C643.00,500.48 641.99,499.99 640.75,499.98 C634.07,499.94 627.28,495.37 623.80,488.58 C621.48,484.07 619.83,463.64 620.40,446.50 L 620.72 436.50 L 624.11 435.97 C629.03,435.20 633.12,436.21 634.39,438.50 C635.00,439.60 635.77,440.73 636.11,441.00 C636.44,441.27 636.73,450.11 636.76,460.63 C636.80,481.44 637.12,482.88 642.31,486.05 C649.05,490.16 657.79,487.43 661.73,479.99 C663.88,475.92 664.00,474.58 664.00,455.34 L 664.00 435.00 L 678.73 435.00 L 679.36 439.64 C680.44,447.46 680.10,495.94 678.96,498.07 C678.10,499.67 676.83,500.00 671.44,500.00 C665.44,500.00 664.88,499.81 664.00,497.50 C662.82,494.39 661.91,494.38 657.23,497.41 C655.18,498.73 651.92,500.12 650.00,500.48 ZM 832.43 617.02 C828.82,618.40 822.27,618.24 821.31,616.75 C820.86,616.06 820.44,606.24 820.36,594.92 C820.25,578.17 819.93,573.76 818.62,571.23 C816.11,566.39 813.35,565.00 806.23,565.00 C800.22,565.00 799.73,565.18 796.54,568.66 C794.69,570.68 792.92,573.66 792.59,575.29 C792.27,576.92 792.00,586.97 792.00,597.62 L 792.00 617.00 L 785.24 617.00 C779.78,617.00 778.26,616.65 777.34,615.18 C775.96,612.96 775.74,554.72 777.12,555.57 C777.60,555.87 778.00,555.64 778.00,555.06 C778.00,554.42 780.59,554.00 784.50,554.00 C790.71,554.00 791.00,554.11 791.00,556.43 C791.00,559.92 793.73,560.03 799.05,556.76 C801.69,555.13 806.21,553.53 809.83,552.95 C818.03,551.63 824.87,553.82 829.08,559.12 C833.91,565.18 835.00,571.86 835.00,595.23 L 835.00 616.05 ZM 592.31 497.96 C573.38,506.10 554.64,497.78 548.83,478.66 C544.49,464.37 548.69,448.15 558.72,440.49 C570.39,431.58 589.13,431.84 599.77,441.06 C603.59,444.37 607.87,451.21 607.95,454.12 C608.01,456.21 603.17,457.22 597.03,456.41 C593.35,455.92 592.09,455.23 590.80,452.97 C587.20,446.70 576.52,445.11 570.36,449.92 C558.70,459.02 561.16,481.95 574.32,486.93 C575.86,487.52 578.08,488.00 579.25,488.00 C582.83,488.00 589.90,483.98 591.71,480.91 C593.38,478.09 593.67,478.00 601.28,478.00 C608.96,478.00 609.12,478.05 608.46,480.25 C606.18,487.89 600.03,494.64 592.31,497.96 ZM 828.07 499.96 C825.60,501.29 814.54,501.13 810.09,499.71 C805.15,498.13 800.49,493.01 799.15,487.67 C798.50,485.08 798.00,475.34 798.00,465.11 L 798.00 447.10 L 792.75 446.80 L 787.50 446.50 L 787.20 440.80 L 786.90 435.11 L 792.20 434.80 L 797.50 434.50 L 798.08 416.92 L 813.50 417.50 L 813.76 434.50 L 821.93 434.79 L 830.10 435.08 L 829.80 440.79 L 829.50 446.50 L 814.50 447.50 L 814.23 465.07 C813.97,481.62 814.07,482.76 815.97,484.47 C817.08,485.48 819.34,486.38 820.99,486.48 C826.58,486.80 828.74,486.71 829.55,487.72 C830.07,488.35 830.05,489.41 830.02,491.27 C830.01,491.77 830.00,492.34 830.00,492.96 C830.00,497.84 829.65,499.12 828.07,499.96 ZM 657.43 618.43 C656.25,619.61 653.81,619.99 647.68,619.97 C639.32,619.94 637.27,619.32 633.15,615.61 C627.98,610.95 627.53,608.88 627.00,587.00 L 626.50 566.50 L 623.50 566.23 C615.94,565.54 615.87,565.47 616.20,559.22 L 616.50 553.50 L 626.50 552.50 L 627.50 537.50 L 631.68 536.62 C633.97,536.14 637.01,536.04 638.43,536.39 C640.89,537.01 641.00,537.35 641.00,544.09 C641.00,553.21 641.79,554.00 650.93,554.00 L 658.00 554.00 L 658.00 558.44 C658.00,560.88 657.54,563.16 656.99,563.51 C656.43,563.85 653.18,564.36 649.76,564.63 C646.34,564.90 643.20,565.65 642.79,566.31 C642.37,566.96 642.02,575.06 642.02,584.30 C642.00,600.80 642.04,601.13 644.45,603.55 C646.46,605.55 647.91,606.00 652.35,606.00 C658.42,606.00 659.00,606.61 659.00,613.01 C659.00,615.17 658.31,617.54 657.43,618.43 ZM 140.92 553.08 C142.53,554.68 144.59,556.00 145.50,556.00 C146.41,556.00 148.47,554.68 150.08,553.08 C152.95,550.20 153.00,549.98 153.00,539.17 L 153.00 528.18 L 164.09 527.84 C174.81,527.51 175.26,527.41 177.59,524.69 C180.50,521.31 180.63,519.00 178.09,515.86 C176.32,513.67 175.36,513.48 164.59,513.16 L 153.00 512.83 L 153.00 502.32 C153.00,493.30 152.71,491.40 150.93,488.90 C146.87,483.20 138.60,486.34 138.40,493.66 C138.34,495.77 138.22,500.99 138.15,505.25 L 138.00 513.00 L 129.24 513.00 C119.97,513.00 114.16,514.14 112.84,516.23 C110.85,519.36 113.58,528.00 116.07,526.46 C116.58,526.14 117.00,526.36 117.00,526.94 C117.00,527.62 120.78,528.00 127.50,528.00 L 138.00 528.00 L 138.00 539.08 C138.00,549.99 138.04,550.20 140.92,553.08 ZM 152.58 627.02 C157.08,631.41 161.24,635.00 161.83,635.00 C164.37,635.00 168.26,632.40 169.60,629.81 C171.55,626.04 170.15,623.46 161.59,615.05 L 155.04 608.60 L 163.01 600.43 C170.81,592.44 170.96,592.19 169.89,589.11 C168.64,585.53 166.38,584.00 162.34,584.00 C160.21,584.00 157.82,585.72 152.27,591.22 L 145.00 598.45 L 137.75 591.30 C131.16,584.81 129.02,583.54 125.25,583.88 C122.73,584.12 120.00,588.00 120.00,591.35 C120.00,594.25 120.96,595.56 127.00,600.93 C130.85,604.35 134.00,607.69 134.00,608.35 C134.00,609.01 130.85,612.68 127.00,616.50 C119.22,624.22 118.19,627.45 122.17,631.69 C125.99,635.74 128.79,634.77 136.98,626.52 L 144.41 619.04 ZM 711.02 406.00 L 710.50 499.50 L 703.46 499.79 C699.58,499.95 696.09,499.76 695.71,499.37 C695.32,498.98 695.00,477.82 695.00,452.33 L 695.00 406.00 ZM 534.02 497.43 C533.12,499.82 532.60,500.00 526.69,500.00 C523.19,500.00 520.03,499.70 519.67,499.33 C519.30,498.97 519.00,477.82 519.00,452.33 L 519.00 406.00 L 525.96 406.00 C531.83,406.00 533.09,406.31 533.96,407.93 C535.33,410.48 535.38,493.86 534.02,497.43 ZM 529.75 618.37 C528.51,618.70 525.14,618.98 522.25,618.99 L 517.00 619.00 L 517.00 525.00 L 532.00 525.00 L 532.00 617.77 ZM 929.42 499.39 C927.28,500.21 917.50,500.17 916.67,499.33 C916.30,498.97 916.00,484.32 916.00,466.79 L 916.00 434.91 L 923.25 435.21 C930.36,435.49 930.50,435.55 930.50,438.16 C930.50,442.29 931.64,442.52 935.45,439.18 C939.63,435.51 945.01,433.72 950.50,434.17 L 954.50 434.50 L 954.75 439.50 C955.19,448.16 954.86,448.62 947.82,449.36 C940.41,450.14 935.67,452.95 932.93,458.21 C931.23,461.48 931.00,464.08 931.00,480.35 C931.00,496.24 930.78,498.87 929.42,499.39 ZM 726.47 606.05 C735.99,609.91 747.42,601.10 748.66,588.95 C750.00,575.93 742.65,566.00 731.70,566.00 C726.86,566.00 722.05,568.65 718.71,573.16 C716.52,576.13 715.26,587.26 716.43,593.47 C717.15,597.33 722.98,604.64 726.47,606.05 ZM 466.00 605.95 C469.71,607.48 476.39,606.57 479.94,604.05 C487.60,598.59 490.46,584.29 485.75,574.97 C482.56,568.66 478.15,566.00 470.89,566.00 C465.57,566.00 464.76,566.30 461.57,569.49 C452.13,578.94 454.85,601.33 466.00,605.95 ZM 862.90 485.75 C870.20,490.59 879.98,486.94 884.35,477.75 C886.37,473.49 886.79,471.26 886.55,465.95 C886.01,453.88 879.68,447.00 869.10,447.00 C864.50,447.00 858.63,451.11 856.97,455.50 C856.34,457.15 855.42,459.28 854.92,460.24 C851.64,466.44 856.32,481.39 862.90,485.75 ZM 687.00 588.00 L 686.50 618.50 L 679.96 618.79 C676.36,618.95 673.10,618.76 672.71,618.37 C672.32,617.99 672.00,603.34 672.00,585.83 L 672.00 554.00 L 679.38 554.00 C685.61,554.00 686.82,554.27 687.13,555.75 C687.34,556.71 687.28,571.22 687.00,588.00 ZM 228.53 633.41 C232.19,638.99 233.72,637.94 259.89,611.87 C280.23,591.60 284.06,587.33 283.80,585.22 C283.39,581.78 279.09,578.66 276.23,579.72 C272.86,580.97 228.15,625.54 227.45,628.35 C227.06,629.89 227.47,631.78 228.53,633.41 ZM 226.74 524.99 C228.31,526.26 233.21,526.49 257.95,526.42 C287.26,526.34 287.31,526.34 289.15,524.06 C291.41,521.27 291.51,518.18 289.44,515.22 C287.89,513.01 287.77,513.00 257.48,513.00 C227.14,513.00 227.07,513.01 225.89,515.21 C224.17,518.42 224.59,523.25 226.74,524.99 ZM 741.82 487.28 C745.23,489.40 752.95,489.47 757.25,487.42 C763.72,484.33 767.14,475.31 763.65,470.54 C762.49,468.94 761.87,468.85 759.00,469.85 C757.19,470.48 753.84,471.00 751.56,471.00 C745.93,471.00 738.60,474.77 738.16,477.89 C737.98,479.20 738.43,480.66 739.16,481.12 C740.02,481.66 740.08,481.97 739.34,481.98 C737.36,482.01 739.00,485.54 741.82,487.28 ZM 468.25 487.01 C472.22,489.43 477.04,489.55 481.72,487.33 C486.46,485.08 488.99,480.67 489.00,474.63 C489.00,469.83 488.96,469.78 486.25,470.41 C484.74,470.77 480.46,471.44 476.75,471.91 C467.36,473.10 465.00,474.84 465.00,480.54 C465.00,484.53 465.36,485.25 468.25,487.01 ZM 234.30 598.04 C236.22,599.21 236.98,599.78 237.77,599.84 C238.41,599.88 239.07,599.60 240.38,599.04 C240.67,598.91 241.00,598.77 241.36,598.62 C245.60,596.85 249.00,592.51 249.00,588.88 C249.00,584.92 244.40,580.07 240.00,579.38 C232.32,578.18 225.44,587.44 229.45,593.57 C230.36,594.96 232.55,596.97 234.30,598.04 ZM 266.82 633.25 C271.41,638.19 279.13,636.52 282.59,629.83 C285.81,623.60 280.77,616.00 273.42,616.00 C269.87,616.00 268.73,616.54 266.16,619.47 C263.56,622.43 263.20,623.49 263.69,626.72 C264.00,628.80 265.41,631.74 266.82,633.25 ZM 685.75 539.70 C680.67,544.33 676.26,544.49 671.75,540.23 C665.90,534.69 669.58,525.00 677.52,525.00 C684.14,525.00 687.92,528.28 687.97,534.08 C687.99,536.54 687.30,538.29 685.75,539.70 Z" fill="rgb(1,128,220)"/>
<path d="M 300.50 662.64 C303.80,661.92 307.85,660.62 309.50,659.75 C313.75,657.50 320.40,650.27 323.00,645.08 L 325.22 640.65 L 325.53 511.33 C325.71,440.20 325.50,382.00 325.08,382.00 C324.65,382.00 323.52,380.27 322.57,378.16 C320.31,373.14 312.16,365.43 306.22,362.68 L 301.50 360.50 L 204.00 360.19 C131.77,359.96 105.07,360.18 101.00,361.06 C90.09,363.40 82.69,368.86 78.29,377.82 L 75.50 383.50 L 75.00 512.25 C74.72,583.06 74.78,641.00 75.13,641.00 C75.90,641.00 78.33,646.73 78.33,648.55 C78.33,648.85 78.37,649.10 78.45,649.30 C77.45,647.74 76.53,646.05 75.68,644.21 L 73.50 639.50 L 73.50 513.00 C73.50,409.74 73.75,385.77 74.84,382.50 C78.19,372.53 87.06,363.60 96.44,360.74 C99.55,359.79 124.01,359.50 201.00,359.50 C297.84,359.50 301.68,359.57 306.50,361.43 C313.04,363.95 321.17,371.72 324.15,378.30 L 326.50 383.50 L 326.50 641.50 L 323.83 646.50 C320.38,652.98 313.79,659.31 307.50,662.20 L 302.50 664.50 L 202.50 664.69 C198.02,664.70 193.72,664.71 189.61,664.72 C107.36,664.88 98.57,664.90 91.80,661.21 C90.65,660.58 89.57,659.85 88.19,659.00 C84.38,656.63 81.26,653.59 78.68,649.65 C78.75,649.71 78.83,649.72 78.92,649.69 C79.24,649.59 81.39,651.39 83.70,653.70 C88.44,658.44 92.46,660.77 99.00,662.55 C105.75,664.40 292.06,664.48 300.50,662.64 ZM 832.43 617.02 L 835.00 616.05 L 835.00 595.23 C835.00,571.86 833.91,565.18 829.08,559.12 C824.87,553.82 818.03,551.63 809.83,552.95 C806.21,553.53 801.69,555.13 799.05,556.76 C793.73,560.03 791.00,559.92 791.00,556.43 C791.00,554.11 790.71,554.00 784.50,554.00 C780.59,554.00 778.00,554.42 778.00,555.06 C778.00,555.64 777.60,555.87 777.12,555.57 C776.59,555.25 776.30,563.71 776.21,574.37 L 776.25 553.00 L 793.00 553.00 L 793.00 556.00 C793.00,559.64 793.39,559.69 797.15,556.52 C800.49,553.72 808.68,551.00 813.82,551.00 C823.55,551.00 831.74,557.00 834.44,566.13 C835.66,570.22 836.00,576.55 836.00,595.18 L 836.00 619.00 L 819.00 619.00 L 819.00 596.95 C819.00,573.37 818.56,570.91 813.78,567.56 C812.50,566.66 809.48,566.00 806.66,566.00 C802.31,566.00 801.33,566.43 797.88,569.88 L 794.00 573.76 L 794.00 619.00 L 776.15 619.00 L 776.20 586.00 L 776.20 584.65 C776.26,599.25 776.66,614.08 777.34,615.18 C778.26,616.65 779.78,617.00 785.24,617.00 L 792.00 617.00 L 792.00 597.62 C792.00,586.97 792.27,576.92 792.59,575.29 C792.92,573.66 794.69,570.68 796.54,568.66 C799.73,565.18 800.22,565.00 806.23,565.00 C813.35,565.00 816.11,566.39 818.62,571.23 C819.93,573.76 820.25,578.17 820.36,594.92 C820.44,606.24 820.86,616.06 821.31,616.75 C822.27,618.24 828.82,618.40 832.43,617.02 ZM 741.82 487.28 C739.00,485.54 737.36,482.01 739.34,481.98 C740.08,481.97 740.02,481.66 739.16,481.12 C738.43,480.66 737.98,479.20 738.16,477.89 C738.60,474.77 745.93,471.00 751.56,471.00 C753.84,471.00 757.19,470.48 759.00,469.85 C761.87,468.85 762.49,468.94 763.65,470.54 C767.14,475.31 763.72,484.33 757.25,487.42 C752.95,489.47 745.23,489.40 741.82,487.28 ZM 743.25 486.01 C747.07,488.34 751.75,488.55 756.40,486.61 C761.14,484.63 763.00,481.47 763.00,475.42 L 763.00 470.29 L 757.78 471.65 C754.91,472.39 751.06,473.00 749.22,473.00 C745.75,473.00 742.04,474.49 740.77,476.40 C740.36,477.00 740.02,478.97 740.02,480.76 C740.00,483.38 740.64,484.42 743.25,486.01 ZM 420.47 497.56 C418.02,498.76 416.17,499.47 413.83,499.91 C415.27,499.52 416.01,499.16 415.50,499.08 C414.95,499.00 416.43,498.02 418.80,496.91 C423.72,494.61 426.08,492.87 430.76,488.13 C434.94,483.90 439.13,475.82 438.04,474.07 C437.11,472.56 423.74,472.29 423.24,473.77 C423.07,474.28 421.55,476.58 419.85,478.89 C415.45,484.87 410.71,487.00 401.79,486.99 C385.15,486.97 376.23,475.85 375.72,454.50 C375.51,445.97 375.69,445.09 379.18,437.80 C379.51,437.13 379.83,436.48 380.15,435.86 C378.48,439.97 377.50,445.02 377.21,451.01 C376.68,462.16 378.18,468.76 382.97,476.30 C392.02,490.54 416.80,488.58 421.45,473.25 C422.10,471.12 422.65,471.00 431.68,471.00 L 441.22 471.00 L 440.54 473.75 C438.26,483.00 429.86,492.96 420.47,497.56 ZM 643.98 501.75 C643.44,501.84 643.09,501.89 643.00,501.87 C632.38,499.88 629.13,498.35 625.57,493.68 C620.35,486.84 619.72,483.28 619.24,458.25 L 618.79 435.00 L 636.83 435.00 L 636.78 457.32 C636.77,462.09 636.77,465.98 636.82,469.16 C636.78,466.75 636.76,463.93 636.76,460.63 C636.73,450.11 636.44,441.27 636.11,441.00 C635.77,440.73 635.00,439.60 634.39,438.50 C633.12,436.21 629.03,435.20 624.11,435.97 L 620.72 436.50 L 620.40 446.50 C619.83,463.64 621.48,484.07 623.80,488.58 C627.28,495.37 634.07,499.94 640.75,499.98 C641.99,499.99 643.00,500.48 643.00,501.07 C643.00,501.49 643.40,501.74 643.98,501.75 ZM 494.43 437.30 C494.38,437.32 494.33,437.35 494.28,437.38 C493.61,437.77 491.81,437.44 490.28,436.65 C486.98,434.94 477.39,434.35 470.77,435.44 C461.69,436.94 453.01,444.66 453.00,451.25 C453.00,453.96 453.09,454.00 459.38,454.00 C465.54,454.00 465.80,453.90 467.02,450.95 C468.70,446.89 474.00,444.65 479.87,445.51 C488.44,446.78 491.24,454.87 486.97,459.04 C487.52,458.33 487.66,457.28 487.80,455.36 C488.06,451.87 487.68,450.90 485.42,449.11 C479.95,444.82 468.00,447.53 468.00,453.07 C468.00,454.82 467.23,455.00 459.50,455.00 C451.43,455.00 451.00,454.89 451.00,452.82 C451.00,448.88 455.07,442.12 459.32,438.99 C469.32,431.63 484.71,431.44 494.43,437.30 ZM 757.72 496.15 C761.74,493.52 762.52,493.22 763.50,494.38 C762.93,493.94 762.27,494.34 760.79,495.73 C759.52,496.93 756.81,498.60 754.77,499.45 C750.23,501.35 740.84,501.39 735.66,499.54 C723.01,495.03 718.67,477.01 728.13,468.30 C731.51,465.19 735.97,463.52 743.03,462.82 C742.38,462.95 742.00,463.10 742.00,463.25 C742.00,463.66 741.30,464.00 740.45,464.00 C737.71,464.00 730.14,467.93 727.60,470.68 C725.48,472.96 725.14,474.30 725.12,480.31 C725.09,490.04 727.03,493.35 735.50,497.96 C741.47,501.21 751.19,500.42 757.72,496.15 ZM 408.80 528.28 C417.69,531.27 423.59,537.27 426.01,545.97 C427.95,552.96 427.91,553.00 418.72,553.00 L 410.45 553.00 L 408.47 548.80 C407.39,546.49 405.31,543.74 403.86,542.69 C401.62,541.07 397.82,540.19 393.88,540.19 C394.95,540.13 396.01,540.10 396.97,540.13 C403.94,540.28 407.76,542.58 409.99,547.98 C411.15,550.78 411.64,551.01 416.62,551.15 C419.58,551.23 422.54,551.34 423.21,551.40 C423.87,551.46 424.72,550.01 425.09,548.20 C425.46,546.38 425.52,545.14 425.22,545.44 C424.92,545.75 423.90,544.31 422.94,542.25 C420.36,536.66 414.26,530.75 408.80,528.28 ZM 643.00 552.85 C641.24,551.63 641.00,549.13 641.00,544.09 C641.00,537.35 640.89,537.01 638.43,536.39 C637.01,536.04 633.97,536.14 631.68,536.62 L 627.50 537.50 L 626.50 552.50 L 626.00 552.55 L 626.00 535.00 L 643.00 535.00 ZM 642.72 566.49 C642.74,566.41 642.76,566.35 642.79,566.31 C643.20,565.65 646.34,564.90 649.76,564.63 C653.18,564.36 656.43,563.85 656.99,563.51 C657.54,563.16 658.00,560.88 658.00,558.44 L 658.00 554.00 L 650.93 554.00 C647.05,554.00 644.68,553.86 643.23,553.00 L 659.00 553.00 L 659.00 565.92 L 650.75 566.21 ZM 503.50 447.35 L 503.83 472.82 L 503.50 447.41 L 498.89 442.73 C496.62,440.43 494.94,438.26 494.85,437.56 C497.24,439.06 499.26,440.95 500.75,443.19 ZM 642.19 597.72 C642.01,595.13 642.01,591.08 642.02,584.30 C642.02,577.55 642.21,571.42 642.47,568.34 L 642.23 583.77 C642.11,590.90 642.05,595.09 642.19,597.72 ZM 384.86 497.87 C388.65,499.24 393.87,500.21 399.04,500.63 C393.53,500.42 388.98,499.56 384.86,497.87 ZM 486.23 459.67 C485.11,460.50 483.64,461.10 481.81,461.37 C480.87,461.51 479.00,461.77 476.77,462.08 C479.65,461.59 482.20,461.08 483.50,460.69 C484.76,460.32 485.62,460.03 486.23,459.67 ZM 373.52 490.36 C372.78,489.67 372.03,488.95 371.28,488.18 C369.57,486.44 367.71,483.61 366.02,480.36 C368.10,484.11 370.65,487.51 373.52,490.36 ZM 388.60 425.42 C392.25,422.98 396.66,422.00 402.56,422.00 C396.97,422.00 392.33,423.13 388.60,425.42 ZM 368.96 536.06 C371.83,532.54 375.46,529.97 379.90,528.32 C375.49,530.05 371.79,532.74 368.96,536.06 ZM 365.42 565.11 C367.22,568.76 369.29,571.32 371.34,572.44 C368.26,570.76 365.50,566.47 363.95,561.52 C364.35,562.73 364.84,563.93 365.42,565.11 ZM 387.62 540.97 C387.54,540.99 387.47,541.01 387.39,541.03 C384.34,541.89 382.02,543.68 380.59,545.94 C381.90,543.75 384.01,542.01 386.76,541.19 C387.01,541.11 387.30,541.04 387.62,540.97 ZM 657.77 497.16 C657.14,497.61 656.19,498.12 655.08,498.61 C655.86,498.23 656.60,497.81 657.23,497.41 C658.03,496.89 658.72,496.46 659.32,496.12 C658.86,496.41 658.34,496.75 657.77,497.16 ZM 462.06 464.63 C456.12,466.34 452.41,468.91 450.73,472.43 C452.44,468.85 456.10,466.30 462.06,464.63 ZM 362.70 551.07 C362.82,549.02 363.14,547.32 363.78,545.48 C363.22,547.29 362.85,549.17 362.70,551.07 ZM 751.18 462.20 C754.31,461.88 757.11,461.44 758.36,461.05 L 758.29 461.07 C756.88,461.53 754.02,461.98 751.18,462.20 ZM 648.83 500.71 C647.58,501.01 646.39,501.27 645.41,501.47 C646.29,501.25 647.58,500.97 648.83,500.71 ZM 764.46 496.43 C764.50,496.76 764.46,497.06 764.34,497.26 C763.80,498.13 764.35,498.82 765.82,499.29 C764.35,498.83 763.79,498.15 764.31,497.31 C764.44,497.10 764.49,496.78 764.46,496.43 ZM 662.24 495.19 C663.01,495.36 663.48,496.12 664.00,497.50 C663.49,496.16 662.98,495.39 662.24,495.19 Z" fill="rgb(13,110,193)"/>
<path d="M 0.00 512.00 L 0.00 0.00 L 512.00 0.00 L 1024.00 0.00 L 1024.00 512.00 L 1024.00 1024.00 L 512.00 1024.00 L 0.00 1024.00 L 0.00 512.00 ZM 307.50 662.20 C313.79,659.31 320.38,652.98 323.83,646.50 L 326.50 641.50 L 326.50 512.50 L 326.50 383.50 L 324.15 378.30 C321.17,371.72 313.04,363.95 306.50,361.43 C301.68,359.57 297.84,359.50 201.00,359.50 C124.01,359.50 99.55,359.79 96.44,360.74 C87.06,363.60 78.19,372.53 74.84,382.50 C73.75,385.77 73.50,409.74 73.50,513.00 L 73.50 639.50 L 75.68 644.21 C78.77,650.90 82.78,655.64 88.19,659.00 C98.11,665.15 93.02,664.90 202.50,664.69 L 302.50 664.50 L 307.50 662.20 ZM 408.70 618.53 C415.11,616.51 417.35,615.21 421.21,611.28 C430.92,601.41 431.62,587.53 422.90,577.63 C418.08,572.14 412.72,569.60 399.33,566.44 C387.02,563.53 384.30,562.28 381.25,558.14 C376.50,551.68 379.53,543.23 387.39,541.03 C393.10,539.43 400.38,540.16 403.86,542.69 C405.31,543.74 407.39,546.49 408.47,548.80 L 410.45 553.00 L 418.72 553.00 C427.91,553.00 427.95,552.96 426.01,545.97 C422.64,533.84 412.49,526.94 396.90,526.19 C381.27,525.43 371.06,530.38 365.56,541.38 C363.26,545.98 362.63,548.59 362.64,553.38 C362.66,561.18 366.63,569.87 371.34,572.44 C373.08,573.38 376.08,575.00 378.00,576.04 C381.08,577.70 385.25,578.86 399.00,581.88 C406.43,583.51 410.70,586.86 411.62,591.80 C412.94,598.84 407.02,605.16 397.82,606.51 C389.50,607.74 382.04,603.82 378.50,596.36 L 376.91 593.00 L 368.67 593.00 C360.75,593.00 360.44,593.09 360.59,595.25 C360.86,599.10 365.68,608.52 369.16,612.00 C377.67,620.51 393.93,623.20 408.70,618.53 ZM 483.46 618.17 C486.75,617.07 490.15,614.78 493.52,611.42 C514.88,590.13 503.61,555.44 474.35,552.38 C467.67,551.68 458.51,553.79 453.87,557.09 C452.40,558.14 450.76,559.00 450.23,559.00 C449.16,559.00 445.05,564.92 441.54,571.51 C439.55,575.26 439.28,577.12 439.41,586.15 C439.55,595.41 439.87,597.11 442.47,602.30 C447.25,611.84 455.77,618.15 466.22,619.88 C472.38,620.91 476.59,620.49 483.46,618.17 ZM 581.71 617.57 C588.23,613.84 590.00,613.49 590.00,615.91 C590.00,618.45 592.71,619.23 600.05,618.81 L 605.50 618.50 L 605.76 586.25 L 606.03 554.00 L 598.01 554.00 L 590.00 554.00 L 590.00 574.75 C590.00,598.00 589.42,600.51 583.14,604.71 C578.92,607.52 571.19,607.38 567.92,604.43 C563.47,600.40 563.08,598.27 562.96,577.00 C562.89,565.86 562.60,556.13 562.31,555.38 C561.93,554.38 559.73,554.00 554.32,554.00 L 546.85 554.00 L 547.28 578.75 C547.74,604.95 547.73,604.84 550.20,609.50 C553.97,616.60 560.18,619.87 570.00,619.93 C576.14,619.97 578.26,619.54 581.71,617.57 ZM 657.43 618.43 C658.31,617.54 659.00,615.17 659.00,613.01 C659.00,606.61 658.42,606.00 652.35,606.00 C647.89,606.00 646.46,605.55 644.43,603.52 C641.96,601.05 641.95,600.99 642.23,583.77 L 642.50 566.50 L 650.75 566.21 L 659.00 565.92 L 659.00 559.46 L 659.00 553.00 L 651.00 553.00 L 643.00 553.00 L 643.00 544.00 L 643.00 535.00 L 634.50 535.00 L 626.00 535.00 L 626.00 543.95 L 626.00 552.89 L 621.25 553.20 L 616.50 553.50 L 616.20 559.22 C615.87,565.47 615.94,565.54 623.50,566.23 L 626.50 566.50 L 627.00 587.00 C627.53,608.88 627.98,610.95 633.15,615.61 C637.27,619.32 639.32,619.94 647.68,619.97 C653.81,619.99 656.25,619.61 657.43,618.43 ZM 745.50 617.12 C752.94,613.54 758.06,608.30 761.70,600.50 C764.17,595.20 764.49,593.39 764.43,584.97 C764.37,576.46 764.05,574.87 761.53,570.23 C757.78,563.35 752.86,558.57 746.07,555.23 C741.32,552.90 739.24,552.50 731.98,552.50 C724.40,552.50 722.73,552.86 716.92,555.72 C710.46,558.90 705.99,563.26 702.75,569.51 C700.12,574.60 698.67,584.31 699.58,590.70 C700.04,593.89 700.45,596.95 700.51,597.50 C700.56,598.05 701.44,600.08 702.45,602.00 C708.94,614.31 718.10,619.88 732.00,619.96 C738.26,619.99 740.49,619.52 745.50,617.12 ZM 529.75 618.37 L 532.00 617.77 L 532.00 571.38 L 532.00 525.00 L 524.50 525.00 L 517.00 525.00 L 517.00 572.00 L 517.00 619.00 L 522.25 618.99 C525.14,618.98 528.51,618.70 529.75,618.37 ZM 687.00 588.00 C687.28,571.22 687.34,556.71 687.13,555.75 C686.82,554.27 685.61,554.00 679.38,554.00 L 672.00 554.00 L 672.00 585.83 C672.00,603.34 672.32,617.99 672.71,618.37 C673.10,618.76 676.36,618.95 679.96,618.79 L 686.50 618.50 L 687.00 588.00 ZM 794.00 596.38 L 794.00 573.76 L 797.88 569.88 C801.33,566.43 802.31,566.00 806.66,566.00 C809.48,566.00 812.50,566.66 813.78,567.56 C818.56,570.91 819.00,573.37 819.00,596.95 L 819.00 619.00 L 827.50 619.00 L 836.00 619.00 L 836.00 595.18 C836.00,576.55 835.66,570.22 834.44,566.13 C831.74,557.00 823.55,551.00 813.82,551.00 C808.68,551.00 800.49,553.72 797.15,556.52 C793.39,559.69 793.00,559.64 793.00,556.00 L 793.00 553.00 L 784.62 553.00 L 776.25 553.00 L 776.20 586.00 L 776.15 619.00 L 785.07 619.00 L 794.00 619.00 L 794.00 596.38 ZM 685.75 539.70 C687.30,538.29 687.99,536.54 687.97,534.08 C687.92,528.28 684.14,525.00 677.52,525.00 C669.58,525.00 665.90,534.69 671.75,540.23 C676.26,544.49 680.67,544.33 685.75,539.70 ZM 592.31 497.96 C600.03,494.64 606.18,487.89 608.46,480.25 C609.12,478.05 608.96,478.00 601.28,478.00 C593.67,478.00 593.38,478.09 591.71,480.91 C589.90,483.98 582.83,488.00 579.25,488.00 C578.08,488.00 575.86,487.52 574.32,486.93 C561.16,481.95 558.70,459.02 570.36,449.92 C576.52,445.11 587.20,446.70 590.80,452.97 C592.09,455.23 593.35,455.92 597.03,456.41 C603.17,457.22 608.01,456.21 607.95,454.12 C607.87,451.21 603.59,444.37 599.77,441.06 C589.13,431.84 570.39,431.58 558.72,440.49 C548.69,448.15 544.49,464.37 548.83,478.66 C554.64,497.78 573.38,506.10 592.31,497.96 ZM 649.12 500.65 C652.21,499.92 656.10,498.35 657.77,497.16 C661.69,494.38 662.84,494.44 664.00,497.50 C664.88,499.81 665.44,500.00 671.44,500.00 C676.83,500.00 678.10,499.67 678.96,498.07 C680.10,495.94 680.44,447.46 679.36,439.64 L 678.73 435.00 L 671.36 435.00 L 664.00 435.00 L 664.00 455.34 C664.00,474.58 663.88,475.92 661.73,479.99 C657.79,487.43 649.05,490.16 642.31,486.05 C636.95,482.78 636.73,481.62 636.78,457.32 L 636.83 435.00 L 627.81 435.00 L 618.79 435.00 L 619.24 458.25 C619.72,483.28 620.35,486.84 625.57,493.68 C629.13,498.35 632.38,499.88 643.00,501.87 C643.28,501.93 646.03,501.37 649.12,500.65 ZM 420.47 497.56 C429.86,492.96 438.26,483.00 440.54,473.75 L 441.22 471.00 L 431.68 471.00 C422.65,471.00 422.10,471.12 421.45,473.25 C416.80,488.58 392.02,490.54 382.97,476.30 C378.18,468.76 376.68,462.16 377.21,451.01 C378.16,431.44 386.40,422.00 402.56,422.00 C408.90,422.00 410.16,422.33 413.83,424.99 C416.10,426.64 419.17,429.81 420.64,432.03 L 423.32 436.08 L 430.91 435.79 C437.88,435.52 438.53,435.32 438.81,433.29 C439.22,430.47 434.67,422.67 430.06,418.30 C424.86,413.35 416.25,408.67 411.57,408.24 C409.33,408.04 407.07,407.45 406.55,406.93 C405.15,405.56 402.12,405.78 393.88,407.86 C383.21,410.55 379.93,412.18 373.61,417.90 C370.51,420.70 368.22,423.00 368.53,423.00 C368.83,423.00 367.93,424.68 366.54,426.73 C365.14,428.78 364.00,431.03 364.00,431.73 C364.00,432.43 363.52,433.00 362.94,433.00 C362.36,433.00 362.09,433.34 362.36,433.77 C362.62,434.19 362.19,436.99 361.41,439.98 C359.72,446.50 359.57,459.85 361.11,467.20 C362.60,474.38 367.36,484.19 371.28,488.18 C380.98,498.04 389.44,501.16 405.17,500.63 C413.29,500.36 415.74,499.87 420.47,497.56 ZM 482.61 497.24 C487.63,493.97 489.00,493.91 489.00,496.95 C489.00,497.96 489.71,499.06 490.58,499.39 C492.91,500.28 501.29,500.10 502.83,499.13 C503.89,498.46 504.09,493.17 503.83,472.82 L 503.50 447.35 L 500.75 443.19 C493.23,431.84 471.96,429.69 459.32,438.99 C455.07,442.12 451.00,448.88 451.00,452.82 C451.00,454.89 451.43,455.00 459.50,455.00 C467.23,455.00 468.00,454.82 468.00,453.07 C468.00,447.53 479.95,444.82 485.42,449.11 C487.68,450.90 488.06,451.87 487.80,455.36 C487.52,459.24 487.25,459.58 483.50,460.69 C481.30,461.34 475.51,462.38 470.62,462.99 C459.45,464.38 453.15,467.37 450.73,472.43 C447.02,480.21 449.72,491.40 456.57,496.62 C463.56,501.95 474.94,502.22 482.61,497.24 ZM 754.77 499.45 C756.81,498.60 759.52,496.93 760.79,495.73 C762.71,493.92 763.26,493.80 763.99,494.98 C764.47,495.76 764.62,496.81 764.31,497.31 C763.30,498.94 766.38,499.97 772.27,499.98 C777.56,500.00 778.13,499.78 779.02,497.43 C779.56,496.02 780.00,485.78 780.00,474.67 C780.00,457.07 779.75,453.78 778.03,449.08 C775.72,442.76 773.01,439.58 767.50,436.74 C762.49,434.17 751.09,433.30 744.12,434.97 C735.12,437.13 726.62,445.34 726.53,451.95 C726.50,454.41 726.75,454.51 733.27,454.80 C739.85,455.08 740.09,455.01 741.74,452.12 C745.07,446.33 753.74,444.33 759.72,447.97 C765.67,451.60 764.93,458.88 758.41,461.03 C756.60,461.63 751.25,462.32 746.52,462.56 C737.39,463.04 732.04,464.71 728.13,468.30 C718.67,477.01 723.01,495.03 735.66,499.54 C740.84,501.39 750.23,501.35 754.77,499.45 ZM 828.07 499.96 C829.65,499.12 830.00,497.84 830.00,492.96 C830.00,486.31 831.04,487.06 820.99,486.48 C819.34,486.38 817.08,485.48 815.97,484.47 C814.07,482.76 813.97,481.62 814.23,465.07 L 814.50 447.50 L 822.00 447.00 L 829.50 446.50 L 829.80 440.79 L 830.10 435.08 L 821.93 434.79 L 813.76 434.50 L 813.63 426.00 L 813.50 417.50 L 805.79 417.21 L 798.08 416.92 L 797.79 425.71 L 797.50 434.50 L 792.20 434.80 L 786.90 435.11 L 787.20 440.80 L 787.50 446.50 L 792.75 446.80 L 798.00 447.10 L 798.00 465.11 C798.00,475.34 798.50,485.08 799.15,487.67 C800.49,493.01 805.15,498.13 810.09,499.71 C814.54,501.13 825.60,501.29 828.07,499.96 ZM 879.10 499.92 C884.56,498.18 887.23,496.75 891.70,493.19 C897.22,488.79 900.67,482.72 902.65,473.93 C904.59,465.34 903.51,458.50 898.94,450.50 C894.90,443.41 891.50,440.13 885.09,437.12 C880.29,434.87 878.16,434.50 870.00,434.50 C861.61,434.50 859.83,434.83 854.78,437.31 C844.00,442.60 837.72,453.38 837.78,466.50 C837.82,475.30 838.23,477.69 840.35,481.75 C841.29,483.54 841.71,485.00 841.30,485.00 C840.88,485.00 843.49,487.86 847.09,491.36 C851.22,495.36 855.27,498.29 858.07,499.28 C863.28,501.12 874.28,501.45 879.10,499.92 ZM 534.02 497.43 C535.38,493.86 535.33,410.48 533.96,407.93 C533.09,406.31 531.83,406.00 525.96,406.00 L 519.00 406.00 L 519.00 452.33 C519.00,477.82 519.30,498.97 519.67,499.33 C520.03,499.70 523.19,500.00 526.69,500.00 C532.60,500.00 533.12,499.82 534.02,497.43 ZM 710.76 452.75 L 711.02 406.00 L 703.01 406.00 L 695.00 406.00 L 695.00 452.33 C695.00,477.82 695.32,498.98 695.71,499.37 C696.09,499.76 699.58,499.95 703.46,499.79 L 710.50 499.50 L 710.76 452.75 ZM 929.42 499.39 C930.78,498.87 931.00,496.24 931.00,480.35 C931.00,464.08 931.23,461.48 932.93,458.21 C935.67,452.95 940.41,450.14 947.82,449.36 C954.86,448.62 955.19,448.16 954.75,439.50 L 954.50 434.50 L 950.50 434.17 C945.01,433.72 939.63,435.51 935.45,439.18 C931.64,442.52 930.50,442.29 930.50,438.16 C930.50,435.55 930.36,435.49 923.25,435.21 L 916.00 434.91 L 916.00 466.79 C916.00,484.32 916.30,498.97 916.67,499.33 C917.50,500.17 927.28,500.21 929.42,499.39 ZM 228.53 633.41 C227.47,631.78 227.06,629.89 227.45,628.35 C228.15,625.54 272.86,580.97 276.23,579.72 C279.09,578.66 283.39,581.78 283.80,585.22 C284.06,587.33 280.23,591.60 259.89,611.87 C233.72,637.94 232.19,638.99 228.53,633.41 ZM 266.82 633.25 C265.41,631.74 264.00,628.80 263.69,626.72 C263.20,623.49 263.56,622.43 266.16,619.47 C268.73,616.54 269.87,616.00 273.42,616.00 C280.77,616.00 285.81,623.60 282.59,629.83 C279.13,636.52 271.41,638.19 266.82,633.25 ZM 152.58 627.02 L 144.41 619.04 L 136.98 626.52 C128.79,634.77 125.99,635.74 122.17,631.69 C118.19,627.45 119.22,624.22 127.00,616.50 C130.85,612.68 134.00,609.01 134.00,608.35 C134.00,607.69 130.85,604.35 127.00,600.93 C120.96,595.56 120.00,594.25 120.00,591.35 C120.00,588.00 122.73,584.12 125.25,583.88 C129.02,583.54 131.16,584.81 137.75,591.30 L 145.00 598.45 L 152.27 591.22 C157.82,585.72 160.21,584.00 162.34,584.00 C166.38,584.00 168.64,585.53 169.89,589.11 C170.96,592.19 170.81,592.44 163.01,600.43 L 155.04 608.60 L 161.59 615.05 C170.15,623.46 171.55,626.04 169.60,629.81 C168.26,632.40 164.37,635.00 161.83,635.00 C161.24,635.00 157.08,631.41 152.58,627.02 ZM 234.30 598.04 C232.55,596.97 230.36,594.96 229.45,593.57 C225.44,587.44 232.32,578.18 240.00,579.38 C244.40,580.07 249.00,584.92 249.00,588.88 C249.00,592.51 245.60,596.85 241.36,598.62 C237.34,600.30 238.11,600.37 234.30,598.04 ZM 140.92 553.08 C138.04,550.20 138.00,549.99 138.00,539.08 L 138.00 528.00 L 127.50 528.00 C120.78,528.00 117.00,527.62 117.00,526.94 C117.00,526.36 116.58,526.14 116.07,526.46 C113.58,528.00 110.85,519.36 112.84,516.23 C114.16,514.14 119.97,513.00 129.24,513.00 L 138.00 513.00 L 138.15 505.25 C138.22,500.99 138.34,495.77 138.40,493.66 C138.60,486.34 146.87,483.20 150.93,488.90 C152.71,491.40 153.00,493.30 153.00,502.32 L 153.00 512.83 L 164.59 513.16 C175.36,513.48 176.32,513.67 178.09,515.86 C180.63,519.00 180.50,521.31 177.59,524.69 C175.26,527.41 174.81,527.51 164.09,527.84 L 153.00 528.18 L 153.00 539.17 C153.00,549.98 152.95,550.20 150.08,553.08 C148.47,554.68 146.41,556.00 145.50,556.00 C144.59,556.00 142.53,554.68 140.92,553.08 ZM 226.74 524.99 C224.59,523.25 224.17,518.42 225.89,515.21 C227.07,513.01 227.14,513.00 257.48,513.00 C287.77,513.00 287.89,513.01 289.44,515.22 C291.51,518.18 291.41,521.27 289.15,524.06 C287.31,526.34 287.26,526.34 257.95,526.42 C233.21,526.49 228.31,526.26 226.74,524.99 ZM 104.95 457.45 L 101.50 453.89 L 101.21 424.51 L 100.92 395.13 L 103.71 392.00 L 106.50 388.87 L 199.72 388.89 C301.56,388.91 296.13,388.60 298.85,394.56 C299.63,396.29 300.00,406.20 300.00,425.65 L 300.00 454.20 L 296.60 457.60 L 293.20 461.00 L 200.80 461.00 L 108.39 461.00 L 104.95 457.45 ZM 466.00 605.95 C454.85,601.33 452.13,578.94 461.57,569.49 C464.76,566.30 465.57,566.00 470.89,566.00 C478.15,566.00 482.56,568.66 485.75,574.97 C490.46,584.29 487.60,598.59 479.94,604.05 C476.39,606.57 469.71,607.48 466.00,605.95 ZM 726.47 606.05 C722.98,604.64 717.15,597.33 716.43,593.47 C715.26,587.26 716.52,576.13 718.71,573.16 C722.05,568.65 726.86,566.00 731.70,566.00 C742.65,566.00 750.00,575.93 748.66,588.95 C747.42,601.10 735.99,609.91 726.47,606.05 ZM 468.25 487.01 C465.36,485.25 465.00,484.53 465.00,480.54 C465.00,474.84 467.36,473.10 476.75,471.91 C480.46,471.44 484.74,470.77 486.25,470.41 C488.96,469.78 489.00,469.83 489.00,474.63 C488.99,480.67 486.46,485.08 481.72,487.33 C477.04,489.55 472.22,489.43 468.25,487.01 ZM 743.25 486.01 C740.64,484.42 740.00,483.38 740.02,480.76 C740.02,478.97 740.36,477.00 740.77,476.40 C742.04,474.49 745.75,473.00 749.22,473.00 C751.06,473.00 754.91,472.39 757.78,471.65 L 763.00 470.29 L 763.00 475.42 C763.00,481.47 761.14,484.63 756.40,486.61 C751.75,488.55 747.07,488.34 743.25,486.01 ZM 862.90 485.75 C856.32,481.39 851.64,466.44 854.92,460.24 C855.42,459.28 856.34,457.15 856.97,455.50 C858.63,451.11 864.50,447.00 869.10,447.00 C879.68,447.00 886.01,453.88 886.55,465.95 C886.79,471.26 886.37,473.49 884.35,477.75 C879.98,486.94 870.20,490.59 862.90,485.75 Z" fill="rgb(254,254,254)"/>
</g>
</svg>